# xmcd
#
# Track frame offsets: 
#        150
#        16911
#        30463
#        41691
#        51414
#        64054
#        84949
#        101569
#        115221
#        128901
#        153038
#        175272
#
# Disc length: 2779 seconds
#
# Revision: 2
# Processed by: cddbd v1.5.2PL0 Copyright (c) Steve Scherf et al.
# Submitted via: ExactAudioCopy v0.95b4
#
DISCID=900ad90c
DTITLE=Deadbolt - I Should Have Killed You...
DYEAR=2005
DGENRE=Rock
TTITLE0=I Should Have Killed You
TTITLE1=Scary Voodoo Girl
TTITLE2=Telephone The Dead
TTITLE3=When The Lights Come On
TTITLE4=Hell Dorado
TTITLE5=Spot Where They Gunned Him Down
TTITLE6=Every Minute Of The Day
TTITLE7=She Ran Away
TTITLE8=El Segundo
TTITLE9=Tell Me Where He Lies
TTITLE10=Big John
TTITLE11=Fright Wig
EXTD=
EXTT0=
EXTT1=
EXTT2=
EXTT3=
EXTT4=
EXTT5=
EXTT6=
EXTT7=
EXTT8=
EXTT9=
EXTT10=
EXTT11=
PLAYORDER=
